<?xml version="1.0" encoding="UTF-8" standalone="no"?>
<!DOCTYPE svg PUBLIC "-//W3C//DTD SVG 1.1//EN"
 "http://www.w3.org/Graphics/SVG/1.1/DTD/svg11.dtd">
<!-- Generated by graphviz version 7.1.0 (20230121.1956)
 -->
<!-- Pages: 1 -->
<svg width="1345pt" height="314pt"
 viewBox="0.00 0.00 1345.00 314.00" xmlns="http://www.w3.org/2000/svg" xmlns:xlink="http://www.w3.org/1999/xlink">
<g id="graph0" class="graph" transform="scale(1 1) rotate(0) translate(4 310)">
<polygon fill="white" stroke="none" points="-4,4 -4,-310 1341,-310 1341,4 -4,4"/>
<!-- 0 -->
<g id="node1" class="node">
<title>0</title>
<polygon fill="none" stroke="black" points="1337,-124 1215,-124 1215,-88 1337,-88 1337,-124"/>
<text text-anchor="middle" x="1276" y="-102.3" font-family="Times,serif" font-size="14.00">data=&#45;0.9 grad=1.0</text>
</g>
<!-- 1 -->
<g id="node2" class="node">
<title>1</title>
<polygon fill="none" stroke="black" points="1170,-159 1048,-159 1048,-123 1170,-123 1170,-159"/>
<text text-anchor="middle" x="1109" y="-137.3" font-family="Times,serif" font-size="14.00">data=&#45;0.9 grad=1.0</text>
</g>
<!-- 1&#45;&gt;0 -->
<g id="edge25" class="edge">
<title>1&#45;&gt;0</title>
<path fill="none" stroke="black" d="M1170.04,-128.27C1180.95,-125.95 1192.44,-123.51 1203.65,-121.13"/>
<polygon fill="black" stroke="black" points="1204.2,-124.6 1213.25,-119.1 1202.74,-117.75 1204.2,-124.6"/>
<text text-anchor="middle" x="1192.5" y="-126.8" font-family="Times,serif" font-size="14.00">+</text>
</g>
<!-- 2 -->
<g id="node3" class="node">
<title>2</title>
<polygon fill="none" stroke="black" points="1001,-184 883,-184 883,-148 1001,-148 1001,-184"/>
<text text-anchor="middle" x="942" y="-162.3" font-family="Times,serif" font-size="14.00">data=0.0 grad=1.0</text>
</g>
<!-- 2&#45;&gt;1 -->
<g id="edge12" class="edge">
<title>2&#45;&gt;1</title>
<path fill="none" stroke="black" d="M1001.17,-157.19C1012.56,-155.46 1024.63,-153.63 1036.4,-151.85"/>
<polygon fill="black" stroke="black" points="1036.7,-155.34 1046.06,-150.38 1035.65,-148.42 1036.7,-155.34"/>
<text text-anchor="middle" x="1025.5" y="-156.8" font-family="Times,serif" font-size="14.00">+</text>
</g>
<!-- 3 -->
<g id="node4" class="node">
<title>3</title>
<polygon fill="none" stroke="black" points="830.5,-238 712.5,-238 712.5,-202 830.5,-202 830.5,-238"/>
<text text-anchor="middle" x="771.5" y="-216.3" font-family="Times,serif" font-size="14.00">data=0.4 grad=0.0</text>
</g>
<!-- 3&#45;&gt;2 -->
<g id="edge1" class="edge">
<title>3&#45;&gt;2</title>
<path fill="none" stroke="black" d="M830.02,-201.57C843.77,-197.16 858.58,-192.41 872.76,-187.87"/>
<polygon fill="black" stroke="black" points="873.56,-191.29 882.02,-184.9 871.42,-184.62 873.56,-191.29"/>
<text text-anchor="middle" x="858.5" y="-196.8" font-family="Times,serif" font-size="14.00">×</text>
</g>
<!-- 4 -->
<g id="node5" class="node">
<title>4</title>
<polygon fill="none" stroke="black" points="830.5,-184 712.5,-184 712.5,-148 830.5,-148 830.5,-184"/>
<text text-anchor="middle" x="771.5" y="-162.3" font-family="Times,serif" font-size="14.00">data=0.0 grad=0.4</text>
</g>
<!-- 4&#45;&gt;2 -->
<g id="edge11" class="edge">
<title>4&#45;&gt;2</title>
<path fill="none" stroke="black" d="M830.96,-166C844.03,-166 858.02,-166 871.48,-166"/>
<polygon fill="black" stroke="black" points="871.13,-169.5 881.13,-166 871.13,-162.5 871.13,-169.5"/>
<text text-anchor="middle" x="858.5" y="-169.8" font-family="Times,serif" font-size="14.00">×</text>
</g>
<!-- 5 -->
<g id="node6" class="node">
<title>5</title>
<polygon fill="none" stroke="black" points="633.5,-184 511.5,-184 511.5,-148 633.5,-148 633.5,-184"/>
<text text-anchor="middle" x="572.5" y="-162.3" font-family="Times,serif" font-size="14.00">data=&#45;8.4 grad=0.0</text>
</g>
<!-- 5&#45;&gt;4 -->
<g id="edge10" class="edge">
<title>5&#45;&gt;4</title>
<path fill="none" stroke="black" d="M633.95,-166C655.13,-166 679.1,-166 700.97,-166"/>
<polygon fill="black" stroke="black" points="700.68,-169.5 710.68,-166 700.68,-162.5 700.68,-169.5"/>
<text text-anchor="middle" x="672" y="-169.8" font-family="Times,serif" font-size="14.00">ReLU</text>
</g>
<!-- 6 -->
<g id="node7" class="node">
<title>6</title>
<polygon fill="none" stroke="black" points="459.5,-219 337.5,-219 337.5,-183 459.5,-183 459.5,-219"/>
<text text-anchor="middle" x="398.5" y="-197.3" font-family="Times,serif" font-size="14.00">data=&#45;8.4 grad=0.0</text>
</g>
<!-- 6&#45;&gt;5 -->
<g id="edge8" class="edge">
<title>6&#45;&gt;5</title>
<path fill="none" stroke="black" d="M459.66,-188.76C472.67,-186.11 486.56,-183.28 499.97,-180.56"/>
<polygon fill="black" stroke="black" points="500.5,-184.02 509.6,-178.6 499.11,-177.16 500.5,-184.02"/>
<text text-anchor="middle" x="485.5" y="-186.8" font-family="Times,serif" font-size="14.00">+</text>
</g>
<!-- 7 -->
<g id="node8" class="node">
<title>7</title>
<polygon fill="none" stroke="black" points="289,-267 167,-267 167,-231 289,-231 289,-267"/>
<text text-anchor="middle" x="228" y="-245.3" font-family="Times,serif" font-size="14.00">data=&#45;4.0 grad=0.0</text>
</g>
<!-- 7&#45;&gt;6 -->
<g id="edge4" class="edge">
<title>7&#45;&gt;6</title>
<path fill="none" stroke="black" d="M289.36,-231.81C301.41,-228.37 314.17,-224.74 326.54,-221.21"/>
<polygon fill="black" stroke="black" points="327.17,-224.67 335.83,-218.57 325.25,-217.94 327.17,-224.67"/>
<text text-anchor="middle" x="311.5" y="-229.8" font-family="Times,serif" font-size="14.00">+</text>
</g>
<!-- 8 -->
<g id="node9" class="node">
<title>8</title>
<polygon fill="none" stroke="black" points="122,-306 0,-306 0,-270 122,-270 122,-306"/>
<text text-anchor="middle" x="61" y="-284.3" font-family="Times,serif" font-size="14.00">data=&#45;0.6 grad=0.0</text>
</g>
<!-- 8&#45;&gt;7 -->
<g id="edge2" class="edge">
<title>8&#45;&gt;7</title>
<path fill="none" stroke="black" d="M122.04,-273.81C132.95,-271.23 144.44,-268.51 155.65,-265.86"/>
<polygon fill="black" stroke="black" points="156.33,-269.3 165.26,-263.59 154.72,-262.49 156.33,-269.3"/>
<text text-anchor="middle" x="144.5" y="-271.8" font-family="Times,serif" font-size="14.00">×</text>
</g>
<!-- 9 -->
<g id="node10" class="node">
<title>9</title>
<polygon fill="none" stroke="black" points="122,-252 0,-252 0,-216 122,-216 122,-252"/>
<text text-anchor="middle" x="61" y="-230.3" font-family="Times,serif" font-size="14.00">data=7.0 grad=&#45;0.1</text>
</g>
<!-- 9&#45;&gt;7 -->
<g id="edge3" class="edge">
<title>9&#45;&gt;7</title>
<path fill="none" stroke="black" d="M122.04,-239.46C132.84,-240.44 144.2,-241.47 155.3,-242.48"/>
<polygon fill="black" stroke="black" points="154.95,-245.96 165.23,-243.38 155.58,-238.99 154.95,-245.96"/>
<text text-anchor="middle" x="144.5" y="-244.8" font-family="Times,serif" font-size="14.00">×</text>
</g>
<!-- 19 -->
<g id="node20" class="node">
<title>19</title>
<polygon fill="none" stroke="black" points="289,-195 167,-195 167,-159 289,-159 289,-195"/>
<text text-anchor="middle" x="228" y="-173.3" font-family="Times,serif" font-size="14.00">data=5.5 grad=&#45;0.1</text>
</g>
<!-- 9&#45;&gt;19 -->
<g id="edge15" class="edge">
<title>9&#45;&gt;19</title>
<path fill="none" stroke="black" d="M115.12,-215.65C130.35,-210.39 147.12,-204.6 162.93,-199.13"/>
<polygon fill="black" stroke="black" points="163.96,-202.48 172.27,-195.91 161.68,-195.86 163.96,-202.48"/>
<text text-anchor="middle" x="144.5" y="-208.8" font-family="Times,serif" font-size="14.00">×</text>
</g>
<!-- 10 -->
<g id="node11" class="node">
<title>10</title>
<polygon fill="none" stroke="black" points="289,-141 167,-141 167,-105 289,-105 289,-141"/>
<text text-anchor="middle" x="228" y="-119.3" font-family="Times,serif" font-size="14.00">data=&#45;4.4 grad=0.0</text>
</g>
<!-- 10&#45;&gt;6 -->
<g id="edge7" class="edge">
<title>10&#45;&gt;6</title>
<path fill="none" stroke="black" d="M289.16,-124.14C298.79,-126.45 308.15,-130.18 316,-136 331.01,-147.14 320.52,-161.05 334,-174 334.74,-174.71 335.5,-175.4 336.27,-176.07"/>
<polygon fill="black" stroke="black" points="333.89,-178.66 344.02,-181.77 338.03,-173.02 333.89,-178.66"/>
<text text-anchor="middle" x="311.5" y="-139.8" font-family="Times,serif" font-size="14.00">+</text>
</g>
<!-- 11 -->
<g id="node12" class="node">
<title>11</title>
<polygon fill="none" stroke="black" points="122,-198 0,-198 0,-162 122,-162 122,-198"/>
<text text-anchor="middle" x="61" y="-176.3" font-family="Times,serif" font-size="14.00">data=&#45;0.6 grad=0.0</text>
</g>
<!-- 11&#45;&gt;10 -->
<g id="edge5" class="edge">
<title>11&#45;&gt;10</title>
<path fill="none" stroke="black" d="M117.76,-161.62C128.16,-158.14 138.92,-154.49 149,-151 154.39,-149.14 159.97,-147.18 165.57,-145.2"/>
<polygon fill="black" stroke="black" points="166.61,-148.54 174.86,-141.9 164.27,-141.95 166.61,-148.54"/>
<text text-anchor="middle" x="144.5" y="-156.8" font-family="Times,serif" font-size="14.00">×</text>
</g>
<!-- 12 -->
<g id="node13" class="node">
<title>12</title>
<polygon fill="none" stroke="black" points="122,-90 0,-90 0,-54 122,-54 122,-90"/>
<text text-anchor="middle" x="61" y="-68.3" font-family="Times,serif" font-size="14.00">data=8.0 grad=&#45;0.1</text>
</g>
<!-- 12&#45;&gt;10 -->
<g id="edge6" class="edge">
<title>12&#45;&gt;10</title>
<path fill="none" stroke="black" d="M122.47,-89.02C131.39,-91.63 140.44,-94.35 149,-97 153.18,-98.3 157.47,-99.65 161.79,-101.04"/>
<polygon fill="black" stroke="black" points="160.51,-104.3 171.1,-104.06 162.67,-97.64 160.51,-104.3"/>
<text text-anchor="middle" x="144.5" y="-100.8" font-family="Times,serif" font-size="14.00">×</text>
</g>
<!-- 21 -->
<g id="node22" class="node">
<title>21</title>
<polygon fill="none" stroke="black" points="289,-76 167,-76 167,-40 289,-40 289,-76"/>
<text text-anchor="middle" x="228" y="-54.3" font-family="Times,serif" font-size="14.00">data=4.9 grad=&#45;0.1</text>
</g>
<!-- 12&#45;&gt;21 -->
<g id="edge18" class="edge">
<title>12&#45;&gt;21</title>
<path fill="none" stroke="black" d="M122.35,-61C128.3,-60.2 134.26,-59.51 140,-59 144.96,-58.56 150.08,-58.22 155.25,-57.95"/>
<polygon fill="black" stroke="black" points="155.2,-61.46 165.05,-57.56 154.92,-54.47 155.2,-61.46"/>
<text text-anchor="middle" x="144.5" y="-62.8" font-family="Times,serif" font-size="14.00">×</text>
</g>
<!-- 13 -->
<g id="node14" class="node">
<title>13</title>
<polygon fill="none" stroke="black" points="457.5,-165 339.5,-165 339.5,-129 457.5,-129 457.5,-165"/>
<text text-anchor="middle" x="398.5" y="-143.3" font-family="Times,serif" font-size="14.00">data=0.0 grad=0.0</text>
</g>
<!-- 13&#45;&gt;5 -->
<g id="edge9" class="edge">
<title>13&#45;&gt;5</title>
<path fill="none" stroke="black" d="M457.94,-152.61C468.61,-153.69 479.64,-154.85 490,-156 493.36,-156.37 496.8,-156.76 500.28,-157.16"/>
<polygon fill="black" stroke="black" points="499.59,-160.61 509.93,-158.3 500.4,-153.66 499.59,-160.61"/>
<text text-anchor="middle" x="485.5" y="-159.8" font-family="Times,serif" font-size="14.00">+</text>
</g>
<!-- 14 -->
<g id="node15" class="node">
<title>14</title>
<polygon fill="none" stroke="black" points="1003,-130 881,-130 881,-94 1003,-94 1003,-130"/>
<text text-anchor="middle" x="942" y="-108.3" font-family="Times,serif" font-size="14.00">data=&#45;0.9 grad=1.0</text>
</g>
<!-- 14&#45;&gt;1 -->
<g id="edge24" class="edge">
<title>14&#45;&gt;1</title>
<path fill="none" stroke="black" d="M1003.04,-122.55C1013.95,-124.47 1025.44,-126.49 1036.65,-128.46"/>
<polygon fill="black" stroke="black" points="1035.79,-131.86 1046.24,-130.15 1037,-124.97 1035.79,-131.86"/>
<text text-anchor="middle" x="1025.5" y="-129.8" font-family="Times,serif" font-size="14.00">+</text>
</g>
<!-- 15 -->
<g id="node16" class="node">
<title>15</title>
<polygon fill="none" stroke="black" points="836,-130 707,-130 707,-94 836,-94 836,-130"/>
<text text-anchor="middle" x="771.5" y="-108.3" font-family="Times,serif" font-size="14.00">data=&#45;0.1 grad=10.4</text>
</g>
<!-- 15&#45;&gt;14 -->
<g id="edge13" class="edge">
<title>15&#45;&gt;14</title>
<path fill="none" stroke="black" d="M836.2,-112C846.99,-112 858.26,-112 869.24,-112"/>
<polygon fill="black" stroke="black" points="869.03,-115.5 879.03,-112 869.03,-108.5 869.03,-115.5"/>
<text text-anchor="middle" x="858.5" y="-115.8" font-family="Times,serif" font-size="14.00">×</text>
</g>
<!-- 16 -->
<g id="node17" class="node">
<title>16</title>
<polygon fill="none" stroke="black" points="836,-76 707,-76 707,-40 836,-40 836,-76"/>
<text text-anchor="middle" x="771.5" y="-54.3" font-family="Times,serif" font-size="14.00">data=10.4 grad=&#45;0.1</text>
</g>
<!-- 16&#45;&gt;14 -->
<g id="edge23" class="edge">
<title>16&#45;&gt;14</title>
<path fill="none" stroke="black" d="M830.02,-76.43C843.77,-80.84 858.58,-85.59 872.76,-90.13"/>
<polygon fill="black" stroke="black" points="871.42,-93.38 882.02,-93.1 873.56,-86.71 871.42,-93.38"/>
<text text-anchor="middle" x="858.5" y="-90.8" font-family="Times,serif" font-size="14.00">×</text>
</g>
<!-- 17 -->
<g id="node18" class="node">
<title>17</title>
<polygon fill="none" stroke="black" points="637,-76 508,-76 508,-40 637,-40 637,-76"/>
<text text-anchor="middle" x="572.5" y="-54.3" font-family="Times,serif" font-size="14.00">data=10.4 grad=&#45;0.1</text>
</g>
<!-- 17&#45;&gt;16 -->
<g id="edge22" class="edge">
<title>17&#45;&gt;16</title>
<path fill="none" stroke="black" d="M637.46,-58C655.88,-58 676.13,-58 695.17,-58"/>
<polygon fill="black" stroke="black" points="695.01,-61.5 705.01,-58 695.01,-54.5 695.01,-61.5"/>
<text text-anchor="middle" x="672" y="-61.8" font-family="Times,serif" font-size="14.00">ReLU</text>
</g>
<!-- 18 -->
<g id="node19" class="node">
<title>18</title>
<polygon fill="none" stroke="black" points="463,-106 334,-106 334,-70 463,-70 463,-106"/>
<text text-anchor="middle" x="398.5" y="-84.3" font-family="Times,serif" font-size="14.00">data=10.4 grad=&#45;0.1</text>
</g>
<!-- 18&#45;&gt;17 -->
<g id="edge20" class="edge">
<title>18&#45;&gt;17</title>
<path fill="none" stroke="black" d="M463.06,-76.91C473.97,-75.01 485.39,-73.02 496.57,-71.07"/>
<polygon fill="black" stroke="black" points="496.89,-74.57 506.14,-69.4 495.69,-67.67 496.89,-74.57"/>
<text text-anchor="middle" x="485.5" y="-76.8" font-family="Times,serif" font-size="14.00">+</text>
</g>
<!-- 19&#45;&gt;18 -->
<g id="edge16" class="edge">
<title>19&#45;&gt;18</title>
<path fill="none" stroke="black" d="M289.49,-165.43C298.97,-161.85 308.2,-157.15 316,-151 328.51,-141.14 322.41,-130.93 334,-120 336.83,-117.34 339.92,-114.85 343.16,-112.52"/>
<polygon fill="black" stroke="black" points="344.85,-115.6 351.36,-107.24 341.06,-109.71 344.85,-115.6"/>
<text text-anchor="middle" x="311.5" y="-159.8" font-family="Times,serif" font-size="14.00">+</text>
</g>
<!-- 20 -->
<g id="node21" class="node">
<title>20</title>
<polygon fill="none" stroke="black" points="122,-144 0,-144 0,-108 122,-108 122,-144"/>
<text text-anchor="middle" x="61" y="-122.3" font-family="Times,serif" font-size="14.00">data=0.8 grad=&#45;0.6</text>
</g>
<!-- 20&#45;&gt;19 -->
<g id="edge14" class="edge">
<title>20&#45;&gt;19</title>
<path fill="none" stroke="black" d="M122.05,-128.54C131.29,-130.17 140.56,-132.55 149,-136 158.38,-139.83 158.32,-144.77 167,-150 168.87,-151.13 170.8,-152.24 172.76,-153.32"/>
<polygon fill="black" stroke="black" points="170.97,-156.34 181.45,-157.87 174.21,-150.13 170.97,-156.34"/>
<text text-anchor="middle" x="144.5" y="-139.8" font-family="Times,serif" font-size="14.00">×</text>
</g>
<!-- 21&#45;&gt;18 -->
<g id="edge19" class="edge">
<title>21&#45;&gt;18</title>
<path fill="none" stroke="black" d="M289.36,-68.75C300.12,-70.66 311.45,-72.68 322.57,-74.66"/>
<polygon fill="black" stroke="black" points="321.63,-78.05 332.09,-76.35 322.86,-71.16 321.63,-78.05"/>
<text text-anchor="middle" x="311.5" y="-76.8" font-family="Times,serif" font-size="14.00">+</text>
</g>
<!-- 22 -->
<g id="node23" class="node">
<title>22</title>
<polygon fill="none" stroke="black" points="122,-36 0,-36 0,0 122,0 122,-36"/>
<text text-anchor="middle" x="61" y="-14.3" font-family="Times,serif" font-size="14.00">data=0.6 grad=&#45;0.7</text>
</g>
<!-- 22&#45;&gt;21 -->
<g id="edge17" class="edge">
<title>22&#45;&gt;21</title>
<path fill="none" stroke="black" d="M122.04,-32.55C132.95,-35.2 144.44,-37.99 155.65,-40.7"/>
<polygon fill="black" stroke="black" points="154.72,-44.08 165.26,-43.03 156.37,-37.28 154.72,-44.08"/>
<text text-anchor="middle" x="144.5" y="-41.8" font-family="Times,serif" font-size="14.00">×</text>
</g>
<!-- 23 -->
<g id="node24" class="node">
<title>23</title>
<polygon fill="none" stroke="black" points="459.5,-52 337.5,-52 337.5,-16 459.5,-16 459.5,-52"/>
<text text-anchor="middle" x="398.5" y="-30.3" font-family="Times,serif" font-size="14.00">data=0.0 grad=&#45;0.1</text>
</g>
<!-- 23&#45;&gt;17 -->
<g id="edge21" class="edge">
<title>23&#45;&gt;17</title>
<path fill="none" stroke="black" d="M459.95,-39.31C470,-40.39 480.31,-41.63 490,-43 492.05,-43.29 494.12,-43.59 496.21,-43.91"/>
<polygon fill="black" stroke="black" points="495.6,-47.36 506.02,-45.47 496.7,-40.44 495.6,-47.36"/>
<text text-anchor="middle" x="485.5" y="-46.8" font-family="Times,serif" font-size="14.00">+</text>
</g>
<!-- 24 -->
<g id="node25" class="node">
<title>24</title>
<polygon fill="none" stroke="black" points="1168,-105 1050,-105 1050,-69 1168,-69 1168,-105"/>
<text text-anchor="middle" x="1109" y="-83.3" font-family="Times,serif" font-size="14.00">data=0.0 grad=1.0</text>
</g>
<!-- 24&#45;&gt;0 -->
<g id="edge26" class="edge">
<title>24&#45;&gt;0</title>
<path fill="none" stroke="black" d="M1168.05,-92.81C1177.72,-93.83 1187.65,-94.92 1197,-96 1199.05,-96.24 1201.12,-96.48 1203.22,-96.73"/>
<polygon fill="black" stroke="black" points="1202.7,-100.19 1213.05,-97.92 1203.54,-93.24 1202.7,-100.19"/>
<text text-anchor="middle" x="1192.5" y="-99.8" font-family="Times,serif" font-size="14.00">+</text>
</g>
</g>
</svg>
