<?xml version="1.0" encoding="UTF-8" standalone="no"?>
<!DOCTYPE svg PUBLIC "-//W3C//DTD SVG 1.1//EN"
 "http://www.w3.org/Graphics/SVG/1.1/DTD/svg11.dtd">
<!-- Generated by graphviz version 7.1.0 (20230121.1956)
 -->
<!-- Pages: 1 -->
<svg width="640pt" height="125pt"
 viewBox="0.00 0.00 640.00 125.00" xmlns="http://www.w3.org/2000/svg" xmlns:xlink="http://www.w3.org/1999/xlink">
<g id="graph0" class="graph" transform="scale(1 1) rotate(0) translate(4 121)">
<polygon fill="white" stroke="none" points="-4,4 -4,-121 636,-121 636,4 -4,4"/>
<!-- 0 -->
<g id="node1" class="node">
<title>0</title>
<polygon fill="none" stroke="black" points="632,-55 514,-55 514,-19 632,-19 632,-55"/>
<text text-anchor="middle" x="573" y="-33.3" font-family="Times,serif" font-size="14.00">data=1.2 grad=1.0</text>
</g>
<!-- 1 -->
<g id="node2" class="node">
<title>1</title>
<polygon fill="none" stroke="black" points="444,-55 326,-55 326,-19 444,-19 444,-55"/>
<text text-anchor="middle" x="385" y="-33.3" font-family="Times,serif" font-size="14.00">data=1.2 grad=1.0</text>
</g>
<!-- 1&#45;&gt;0 -->
<g id="edge5" class="edge">
<title>1&#45;&gt;0</title>
<path fill="none" stroke="black" d="M444.34,-37C462.69,-37 483.14,-37 502.2,-37"/>
<polygon fill="black" stroke="black" points="502.03,-40.5 512.03,-37 502.03,-33.5 502.03,-40.5"/>
<text text-anchor="middle" x="479" y="-40.8" font-family="Times,serif" font-size="14.00">ReLU</text>
</g>
<!-- 2 -->
<g id="node3" class="node">
<title>2</title>
<polygon fill="none" stroke="black" points="281,-90 163,-90 163,-54 281,-54 281,-90"/>
<text text-anchor="middle" x="222" y="-68.3" font-family="Times,serif" font-size="14.00">data=1.2 grad=1.0</text>
</g>
<!-- 2&#45;&gt;1 -->
<g id="edge3" class="edge">
<title>2&#45;&gt;1</title>
<path fill="none" stroke="black" d="M281.12,-59.36C292,-57 303.47,-54.51 314.64,-52.08"/>
<polygon fill="black" stroke="black" points="315.18,-55.54 324.21,-50 313.7,-48.7 315.18,-55.54"/>
<text text-anchor="middle" x="303.5" y="-57.8" font-family="Times,serif" font-size="14.00">+</text>
</g>
<!-- 3 -->
<g id="node4" class="node">
<title>3</title>
<polygon fill="none" stroke="black" points="118,-117 0,-117 0,-81 118,-81 118,-117"/>
<text text-anchor="middle" x="59" y="-95.3" font-family="Times,serif" font-size="14.00">data=0.2 grad=7.0</text>
</g>
<!-- 3&#45;&gt;2 -->
<g id="edge1" class="edge">
<title>3&#45;&gt;2</title>
<path fill="none" stroke="black" d="M118.12,-89.25C129,-87.43 140.47,-85.51 151.64,-83.63"/>
<polygon fill="black" stroke="black" points="151.91,-87.13 161.2,-82.03 150.76,-80.23 151.91,-87.13"/>
<text text-anchor="middle" x="140.5" y="-88.8" font-family="Times,serif" font-size="14.00">×</text>
</g>
<!-- 4 -->
<g id="node5" class="node">
<title>4</title>
<polygon fill="none" stroke="black" points="118,-63 0,-63 0,-27 118,-27 118,-63"/>
<text text-anchor="middle" x="59" y="-41.3" font-family="Times,serif" font-size="14.00">data=7.0 grad=0.2</text>
</g>
<!-- 4&#45;&gt;2 -->
<g id="edge2" class="edge">
<title>4&#45;&gt;2</title>
<path fill="none" stroke="black" d="M118.12,-54.75C129,-56.57 140.47,-58.49 151.64,-60.37"/>
<polygon fill="black" stroke="black" points="150.76,-63.77 161.2,-61.97 151.91,-56.87 150.76,-63.77"/>
<text text-anchor="middle" x="140.5" y="-61.8" font-family="Times,serif" font-size="14.00">×</text>
</g>
<!-- 5 -->
<g id="node6" class="node">
<title>5</title>
<polygon fill="none" stroke="black" points="281,-36 163,-36 163,0 281,0 281,-36"/>
<text text-anchor="middle" x="222" y="-14.3" font-family="Times,serif" font-size="14.00">data=0.0 grad=1.0</text>
</g>
<!-- 5&#45;&gt;1 -->
<g id="edge4" class="edge">
<title>5&#45;&gt;1</title>
<path fill="none" stroke="black" d="M281.09,-23.95C290.1,-24.93 299.31,-25.97 308,-27 310.04,-27.24 312.11,-27.49 314.21,-27.75"/>
<polygon fill="black" stroke="black" points="313.66,-31.21 324.01,-28.97 314.52,-24.26 313.66,-31.21"/>
<text text-anchor="middle" x="303.5" y="-30.8" font-family="Times,serif" font-size="14.00">+</text>
</g>
</g>
</svg>
