<?xml version="1.0" encoding="UTF-8" standalone="no"?>
<!DOCTYPE svg PUBLIC "-//W3C//DTD SVG 1.1//EN"
 "http://www.w3.org/Graphics/SVG/1.1/DTD/svg11.dtd">
<!-- Generated by graphviz version 7.1.0 (20230121.1956)
 -->
<!-- Pages: 1 -->
<svg width="665pt" height="206pt"
 viewBox="0.00 0.00 665.00 206.00" xmlns="http://www.w3.org/2000/svg" xmlns:xlink="http://www.w3.org/1999/xlink">
<g id="graph0" class="graph" transform="scale(1 1) rotate(0) translate(4 202)">
<polygon fill="white" stroke="none" points="-4,4 -4,-202 661,-202 661,4 -4,4"/>
<!-- 0 -->
<g id="node1" class="node">
<title>0</title>
<polygon fill="none" stroke="black" points="657,-84 526,-84 526,-48 657,-48 657,-84"/>
<text text-anchor="middle" x="591.5" y="-62.3" font-family="Times,serif" font-size="14.00">data=441.0 grad=1.0</text>
</g>
<!-- 1 -->
<g id="node2" class="node">
<title>1</title>
<polygon fill="none" stroke="black" points="483,-119 352,-119 352,-83 483,-83 483,-119"/>
<text text-anchor="middle" x="417.5" y="-97.3" font-family="Times,serif" font-size="14.00">data=21.0 grad=42.0</text>
</g>
<!-- 1&#45;&gt;0 -->
<g id="edge7" class="edge">
<title>1&#45;&gt;0</title>
<path fill="none" stroke="black" d="M483.04,-87.87C493.26,-85.79 503.91,-83.62 514.36,-81.49"/>
<polygon fill="black" stroke="black" points="515.02,-84.93 524.12,-79.51 513.62,-78.07 515.02,-84.93"/>
<text text-anchor="middle" x="504.5" y="-86.8" font-family="Times,serif" font-size="14.00">^</text>
</g>
<!-- 2 -->
<g id="node3" class="node">
<title>2</title>
<polygon fill="none" stroke="black" points="307,-144 176,-144 176,-108 307,-108 307,-144"/>
<text text-anchor="middle" x="241.5" y="-122.3" font-family="Times,serif" font-size="14.00">data=3.0 grad=294.0</text>
</g>
<!-- 2&#45;&gt;1 -->
<g id="edge3" class="edge">
<title>2&#45;&gt;1</title>
<path fill="none" stroke="black" d="M307.29,-116.69C318.05,-115.15 329.29,-113.53 340.3,-111.95"/>
<polygon fill="black" stroke="black" points="340.76,-115.42 350.16,-110.53 339.76,-108.49 340.76,-115.42"/>
<text text-anchor="middle" x="329.5" y="-116.8" font-family="Times,serif" font-size="14.00">×</text>
</g>
<!-- 3 -->
<g id="node4" class="node">
<title>3</title>
<polygon fill="none" stroke="black" points="131,-198 0,-198 0,-162 131,-162 131,-198"/>
<text text-anchor="middle" x="65.5" y="-176.3" font-family="Times,serif" font-size="14.00">data=1.0 grad=294.0</text>
</g>
<!-- 3&#45;&gt;2 -->
<g id="edge1" class="edge">
<title>3&#45;&gt;2</title>
<path fill="none" stroke="black" d="M125.89,-161.57C140.23,-157.12 155.69,-152.32 170.46,-147.74"/>
<polygon fill="black" stroke="black" points="171.12,-151.2 179.63,-144.89 169.04,-144.51 171.12,-151.2"/>
<text text-anchor="middle" x="153.5" y="-156.8" font-family="Times,serif" font-size="14.00">+</text>
</g>
<!-- 4 -->
<g id="node5" class="node">
<title>4</title>
<polygon fill="none" stroke="black" points="131,-144 0,-144 0,-108 131,-108 131,-144"/>
<text text-anchor="middle" x="65.5" y="-122.3" font-family="Times,serif" font-size="14.00">data=2.0 grad=294.0</text>
</g>
<!-- 4&#45;&gt;2 -->
<g id="edge2" class="edge">
<title>4&#45;&gt;2</title>
<path fill="none" stroke="black" d="M131.29,-126C142.05,-126 153.29,-126 164.3,-126"/>
<polygon fill="black" stroke="black" points="164.14,-129.5 174.14,-126 164.14,-122.5 164.14,-129.5"/>
<text text-anchor="middle" x="153.5" y="-129.8" font-family="Times,serif" font-size="14.00">+</text>
</g>
<!-- 5 -->
<g id="node6" class="node">
<title>5</title>
<polygon fill="none" stroke="black" points="307,-90 176,-90 176,-54 307,-54 307,-90"/>
<text text-anchor="middle" x="241.5" y="-68.3" font-family="Times,serif" font-size="14.00">data=7.0 grad=126.0</text>
</g>
<!-- 5&#45;&gt;1 -->
<g id="edge6" class="edge">
<title>5&#45;&gt;1</title>
<path fill="none" stroke="black" d="M307.29,-82.8C318.05,-84.59 329.29,-86.47 340.3,-88.3"/>
<polygon fill="black" stroke="black" points="339.72,-91.75 350.16,-89.94 340.87,-84.85 339.72,-91.75"/>
<text text-anchor="middle" x="329.5" y="-89.8" font-family="Times,serif" font-size="14.00">×</text>
</g>
<!-- 6 -->
<g id="node7" class="node">
<title>6</title>
<polygon fill="none" stroke="black" points="131,-90 0,-90 0,-54 131,-54 131,-90"/>
<text text-anchor="middle" x="65.5" y="-68.3" font-family="Times,serif" font-size="14.00">data=3.0 grad=126.0</text>
</g>
<!-- 6&#45;&gt;5 -->
<g id="edge4" class="edge">
<title>6&#45;&gt;5</title>
<path fill="none" stroke="black" d="M131.29,-72C142.05,-72 153.29,-72 164.3,-72"/>
<polygon fill="black" stroke="black" points="164.14,-75.5 174.14,-72 164.14,-68.5 164.14,-75.5"/>
<text text-anchor="middle" x="153.5" y="-75.8" font-family="Times,serif" font-size="14.00">+</text>
</g>
<!-- 7 -->
<g id="node8" class="node">
<title>7</title>
<polygon fill="none" stroke="black" points="131,-36 0,-36 0,0 131,0 131,-36"/>
<text text-anchor="middle" x="65.5" y="-14.3" font-family="Times,serif" font-size="14.00">data=4.0 grad=126.0</text>
</g>
<!-- 7&#45;&gt;5 -->
<g id="edge5" class="edge">
<title>7&#45;&gt;5</title>
<path fill="none" stroke="black" d="M125.89,-36.43C140.23,-40.88 155.69,-45.68 170.46,-50.26"/>
<polygon fill="black" stroke="black" points="169.04,-53.49 179.63,-53.11 171.12,-46.8 169.04,-53.49"/>
<text text-anchor="middle" x="153.5" y="-48.8" font-family="Times,serif" font-size="14.00">+</text>
</g>
<!-- 8 -->
<g id="node9" class="node">
<title>8</title>
<polygon fill="none" stroke="black" points="476.5,-65 358.5,-65 358.5,-29 476.5,-29 476.5,-65"/>
<text text-anchor="middle" x="417.5" y="-43.3" font-family="Times,serif" font-size="14.00">data=2.0 grad=0.0</text>
</g>
<!-- 8&#45;&gt;0 -->
<g id="edge8" class="edge">
<title>8&#45;&gt;0</title>
<path fill="none" stroke="black" d="M476.77,-52.69C487.18,-53.75 497.91,-54.88 508,-56 510.06,-56.23 512.15,-56.46 514.26,-56.7"/>
<polygon fill="black" stroke="black" points="513.83,-60.17 524.16,-57.84 514.63,-53.22 513.83,-60.17"/>
<text text-anchor="middle" x="504.5" y="-59.8" font-family="Times,serif" font-size="14.00">^</text>
</g>
</g>
</svg>
